<svg width="443" height="111" viewBox="0 0 443 111" fill="none" xmlns="http://www.w3.org/2000/svg">
<mask id="mask0_571_108" style="mask-type:luminance" maskUnits="userSpaceOnUse" x="0" y="0" width="133" height="111">
<path d="M133 0H0V111H133V0Z" fill="white"/>
</mask>
<g mask="url(#mask0_571_108)">
<path d="M59.1999 1.4001L9.69988 21.9001C6.89988 23.0001 6.99988 26.9001 9.69988 28.0001L59.3999 47.7001C63.7999 49.4001 68.5999 49.4001 72.9999 47.7001L122.7 28.0001C125.5 26.9001 125.5 23.0001 122.7 21.9001L73.1999 1.4001C68.7999 -0.499902 63.7999 -0.499902 59.1999 1.4001Z" fill="#FCB400"/>
</g>
<mask id="mask1_571_108" style="mask-type:luminance" maskUnits="userSpaceOnUse" x="0" y="0" width="133" height="111">
<path d="M133 0H0V111H133V0Z" fill="white"/>
</mask>
<g mask="url(#mask1_571_108)">
<path d="M70.7002 58.5001V107.7C70.7002 110 73.1002 111.6 75.2002 110.8L130.6 89.3001C131.9 88.8001 132.7 87.6001 132.7 86.2001V37.0001C132.7 34.7001 130.3 33.1001 128.2 33.9001L72.8002 55.4001C71.5002 55.9001 70.7002 57.1001 70.7002 58.5001Z" fill="#18BFFF"/>
</g>
<path d="M57.8 60.9999L41.4 68.8999L39.7 69.6999L5 86.3999C2.8 87.4999 0 85.8999 0 83.3999V37.1999C0 36.2999 0.499998 35.5999 1.1 34.9999C1.3 34.7999 1.6 34.4999 1.9 34.3999C2.7 33.8999 3.9 33.7999 4.9 34.1999L57.5 54.9999C60.2 55.9999 60.4 59.7999 57.8 60.9999Z" fill="#F82B60"/>
<path d="M57.8001 60.9998L41.4001 68.8998L1.1001 34.8998C1.3001 34.6998 1.6001 34.3998 1.9001 34.2998C2.7001 33.7998 3.9001 33.6998 4.9001 34.0998L57.5001 54.8998C60.2001 55.9998 60.4001 59.7998 57.8001 60.9998Z" fill="black"/>
<mask id="mask2_571_108" style="mask-type:luminance" maskUnits="userSpaceOnUse" x="155" y="24" width="288" height="62">
<path d="M443 24.1001H155V85.8001H443V24.1001Z" fill="white"/>
</mask>
<g mask="url(#mask2_571_108)">
<path d="M191.8 58.2002L184.5 38.9002C184.2 38.1002 183.1 38.1002 182.8 38.9002L175.6 58.2002C175.4 58.8002 175.8 59.4002 176.5 59.4002H191C191.5 59.4002 191.8 59.1002 191.9 58.6002C191.9 58.5002 191.8 58.3002 191.8 58.2002ZM195.2 69.0002H172.2C171.8 69.0002 171.5 69.2002 171.3 69.6002L166.7 81.6002C166.6 82.0002 166.2 82.2002 165.8 82.2002H155.8C155.1 82.2002 154.7 81.5002 154.9 80.9002L177.8 24.6002C177.9 24.2002 178.3 24.0002 178.7 24.1002H188.2C188.6 24.1002 188.9 24.3002 189.1 24.6002L212 80.9002C212.3 81.5002 211.8 82.2002 211.1 82.2002H201.2C200.8 82.2002 200.5 82.0002 200.3 81.6002L195.7 69.6002C195.9 69.3002 195.5 69.0002 195.2 69.0002ZM216.9 43.9002H225.4C225.9 43.9002 226.3 44.3002 226.3 44.8002V81.3002C226.3 81.8002 225.9 82.2002 225.4 82.2002H216.9C216.4 82.2002 216 81.8002 216 81.3002V44.8002C216 44.3002 216.4 43.9002 216.9 43.9002ZM257.5 52.8002C257.5 53.3002 257.1 53.7002 256.6 53.7002H256.4C252.2 53.7002 249.1 54.7002 247.1 56.7002C245.1 58.7002 244.2 62.0002 244.2 66.6002V81.4002C244.2 81.9002 243.8 82.3002 243.3 82.3002H234.9C234.4 82.3002 234 81.9002 234 81.4002V44.9002C234 44.4002 234.4 44.0002 234.9 44.0002H243.2C243.7 44.0002 244.1 44.4002 244.1 44.9002V52.1002H244.3C245.2 49.4002 246.8 47.0002 249.1 45.2002C251.5 43.5002 254.3 42.7002 257.2 42.8002H257.6L257.5 52.8002ZM280.8 52.5002C280.3 52.5002 279.9 52.9002 279.9 53.4002V68.6002C279.8 69.8002 280.1 71.0002 280.8 71.9002C281.4 72.6002 282.5 72.9002 284 72.9002H284.9C285.4 72.9002 285.8 73.3002 285.8 73.8002V81.4002C285.8 81.9002 285.4 82.3002 284.9 82.3002H281.3C277.5 82.3002 274.7 81.3002 272.6 79.5002C270.6 77.6002 269.6 74.8002 269.6 71.0002V53.5002C269.6 53.0002 269.2 52.6002 268.7 52.6002H263.4C262.9 52.6002 262.5 52.2002 262.5 51.7002V45.0002C262.5 44.5002 262.9 44.1002 263.4 44.1002H268.7C269.2 44.1002 269.6 43.7002 269.6 43.2002V29.6002C269.6 29.1002 270 28.7002 270.5 28.7002H279C279.5 28.7002 279.9 29.1002 279.9 29.6002V43.0002C279.9 43.5002 280.3 43.9002 280.8 43.9002H286.9C287.4 43.9002 287.8 44.3002 287.8 44.8002V51.5002C287.8 52.0002 287.4 52.4002 286.9 52.4002H280.8V52.5002ZM319.8 70.8002C321.8 68.7002 322.8 65.9002 322.7 63.0002C322.8 60.1002 321.8 57.3002 319.8 55.2002C315.5 51.2002 308.9 51.2002 304.6 55.2002C302.6 57.3002 301.6 60.1002 301.7 63.0002C301.6 65.9002 302.6 68.7002 304.6 70.8002C306.6 72.8002 309.4 73.9002 312.2 73.8002C315 74.0002 317.8 72.9002 319.8 70.8002ZM300.1 81.1002C297.2 79.5002 294.9 77.0002 293.3 74.1002C290 67.1002 290 59.0002 293.3 52.1002C294.8 49.2002 297.2 46.8002 300.1 45.1002C303 43.5002 306.3 42.6002 309.6 42.7002C312.3 42.6002 315 43.2002 317.4 44.5002C319.5 45.6002 321.3 47.3002 322.6 49.4002H322.8V44.9002C322.8 44.4002 323.2 44.0002 323.7 44.0002H332.1C332.6 44.0002 333 44.4002 333 44.9002V81.4002C333 81.9002 332.6 82.3002 332.1 82.3002H323.7C323.2 82.3002 322.8 81.9002 322.8 81.4002V76.9002H322.6C321.4 79.0002 319.6 80.7002 317.4 81.8002C315 83.0002 312.3 83.6002 309.6 83.6002C306.3 83.5002 303 82.7002 300.1 81.1002ZM368.1 70.8002C370.1 68.7002 371.1 65.9002 371 63.0002C371.1 60.1002 370.1 57.3002 368.1 55.2002C363.8 51.2002 357.2 51.2002 352.9 55.2002C350.9 57.3002 349.9 60.1002 350 63.0002C349.9 65.9002 350.9 68.7002 352.9 70.8002C354.9 72.8002 357.7 73.9002 360.5 73.8002C363.3 74.0002 366.1 72.9002 368.1 70.8002ZM355.3 81.7002C353.2 80.6002 351.4 78.9002 350.1 76.8002H350V81.3002C350 81.8002 349.6 82.2002 349.1 82.2002H340.6C340.1 82.2002 339.7 81.8002 339.7 81.3002V25.0002C339.7 24.5002 340.1 24.1002 340.6 24.1002H349.1C349.6 24.1002 350 24.5002 350 25.0002V49.3002H350.2C351.4 47.2002 353.2 45.5002 355.4 44.4002C357.8 43.2002 360.5 42.6002 363.2 42.6002C366.5 42.6002 369.8 43.4002 372.6 45.0002C375.5 46.6002 377.8 49.1002 379.4 52.0002C381.1 55.4002 382 59.2002 381.9 63.0002C382 66.8002 381.1 70.6002 379.4 74.0002C377.9 76.9002 375.5 79.4002 372.7 81.0002C369.8 82.6002 366.5 83.5002 363.2 83.4002C360.4 83.6002 357.7 82.9002 355.3 81.7002ZM396.2 82.2002H387.7C387.2 82.2002 386.8 81.8002 386.8 81.3002V25.0002C386.8 24.5002 387.2 24.1002 387.7 24.1002H396.2C396.7 24.1002 397.1 24.5002 397.1 25.0002V81.3002C397.1 81.7002 396.9 82.0002 396.6 82.1002C396.4 82.2002 396.3 82.2002 396.2 82.2002ZM416.3 52.8002C414.8 54.0002 413.8 55.7002 413.4 57.5002C413.3 58.1002 413.7 58.6002 414.3 58.6002H430.5C431 58.6002 431.5 58.1002 431.4 57.6002C431.2 55.8002 430.3 54.1002 428.9 52.9002C427.1 51.5002 424.9 50.8002 422.6 50.8002C420.4 50.8002 418.1 51.4002 416.3 52.8002ZM437 48.0002C440.3 51.6002 442 56.6002 442 63.1002V64.2002C442 64.7002 441.6 65.1002 441.1 65.1002H414C413.4 65.1002 413 65.6002 413.1 66.2002C413.4 68.5002 414.6 70.5002 416.4 72.0002C418.5 73.7002 421.2 74.5002 423.9 74.4002C428 74.4002 431.9 72.7002 434.8 69.9002C435.2 69.5002 435.9 69.6002 436.1 70.1002L440.2 76.0002C440.4 76.4002 440.4 76.9002 440.1 77.2002C438.1 78.9002 435.8 80.4002 433.4 81.6002C430.4 82.9002 427.1 83.6002 423.9 83.5002C420.1 83.6002 416.3 82.7002 412.8 81.0002C409.7 79.4002 407.2 76.9002 405.5 73.9002C403.7 70.6002 402.8 67.0002 402.9 63.2002C402.8 59.5002 403.7 55.8002 405.4 52.5002C407 49.5002 409.5 47.0002 412.5 45.3002C415.7 43.5002 419.4 42.6002 423.1 42.7002C429.1 42.7002 433.7 44.5002 437 48.0002ZM227.5 30.4002C227.6 36.0002 220.9 38.9002 216.9 35.0002C212.9 31.1002 215.6 24.3002 221.2 24.2002C224.6 24.2002 227.4 26.9002 227.5 30.4002Z" fill="black"/>
</g>
</svg>
