<svg width="461" height="119" viewBox="0 0 461 119" fill="none" xmlns="http://www.w3.org/2000/svg">
<path fill-rule="evenodd" clip-rule="evenodd" d="M0 118.653L107.406 63.9373H64.7824L18.2679 87.633V33.6662L0 24.3601L5.63473 21.4896L18.2678 27.9252V15.054L23.9004 12.1845V34.838L63.0923 54.8034H107.579L23.9007 12.1755L18.2678 15.0451V9.31299L0.000222397 18.619L0 24.3601V118.653ZM0.000222397 18.619V24.351L5.62599 21.4851L0.000222397 18.619Z" fill="#E86D57"/>
<path d="M18.2681 9.3061L0.000281568 18.6122L0.000222397 0L18.2681 9.3061Z" fill="#E86D57"/>
<path d="M167.744 26.394C178.277 26.394 186.432 29.316 192.208 35.16C197.984 40.936 200.872 49.2263 200.872 60.0309C200.872 70.7675 197.984 79.0578 192.208 84.9018C186.432 90.7457 178.277 93.6677 167.744 93.6677H141.752V26.394H167.744ZM167.031 82.4554C173.419 82.4554 178.209 80.5527 181.403 76.7474C184.665 72.874 186.296 67.3019 186.296 60.0309C186.296 52.7599 184.665 47.2217 181.403 43.4163C178.209 39.543 173.419 37.6063 167.031 37.6063H155.819V82.4554H167.031ZM235.197 94.687C229.828 94.687 225.139 93.6337 221.13 91.5272C217.189 89.4206 214.131 86.3967 211.957 82.4554C209.782 78.5141 208.695 73.7574 208.695 68.1853C208.695 62.6131 209.782 57.8564 211.957 53.9151C214.131 49.9738 217.155 46.9499 221.028 44.8433C224.97 42.7368 229.454 41.6835 234.483 41.6835C239.647 41.6835 244.03 42.7368 247.632 44.8433C251.233 46.8819 253.986 49.702 255.888 53.3035C257.791 56.8371 258.742 60.8803 258.742 65.4331C258.742 66.7922 258.708 68.0833 258.64 69.3065C258.572 70.5296 258.471 71.6169 258.335 72.5682H217.665V62.8849H252.219L245.491 65.3312C245.491 61.0502 244.506 57.7544 242.535 55.444C240.633 53.1336 237.915 51.9784 234.381 51.9784C231.799 51.9784 229.556 52.59 227.654 53.8131C225.819 55.0363 224.426 56.871 223.475 59.3174C222.523 61.6957 222.048 64.7196 222.048 68.3891C222.048 71.9906 222.557 74.9806 223.577 77.3589C224.664 79.6694 226.159 81.4022 228.061 82.5574C230.032 83.7126 232.376 84.2902 235.095 84.2902C238.085 84.2902 240.497 83.7126 242.332 82.5574C244.166 81.4022 245.593 79.8053 246.613 77.7667L257.723 82.0477C256.636 84.6979 254.971 86.9743 252.728 88.877C250.554 90.7797 247.938 92.2407 244.88 93.26C241.89 94.2114 238.662 94.687 235.197 94.687ZM300.378 42.7028H314.852L295.486 93.6677H279.381L260.014 42.7028H274.896L287.535 82.9651L300.378 42.7028ZM327.583 35.3638C324.661 35.3638 322.487 34.7522 321.06 33.5291C319.633 32.238 318.919 30.3693 318.919 27.9229C318.919 25.4087 319.633 23.54 321.06 22.3168C322.487 21.0257 324.661 20.3801 327.583 20.3801C330.505 20.3801 332.68 21.0257 334.107 22.3168C335.534 23.54 336.247 25.4087 336.247 27.9229C336.247 30.3693 335.534 32.238 334.107 33.5291C332.68 34.7522 330.505 35.3638 327.583 35.3638ZM334.514 42.7028V93.6677H320.55V42.7028H334.514ZM377.246 94.687C374.12 94.687 371.266 94.0415 368.684 92.7504C366.17 91.3913 364.063 89.5566 362.364 87.2461C360.734 84.8678 359.612 82.2176 359.001 79.2956L360.428 77.4609L359.612 93.6677H347.279V20.3801H361.243V57.0749L359.918 54.9344C361.005 51.129 363.078 47.9692 366.136 45.4549C369.194 42.9406 373.033 41.6835 377.654 41.6835C381.663 41.6835 385.299 42.7368 388.56 44.8433C391.822 46.9499 394.37 49.9738 396.205 53.9151C398.108 57.8564 399.059 62.6471 399.059 68.2872C399.059 73.7914 398.108 78.5141 396.205 82.4554C394.37 86.3967 391.788 89.4206 388.458 91.5272C385.197 93.6337 381.459 94.687 377.246 94.687ZM373.067 83.9844C376.804 83.9844 379.726 82.6593 381.833 80.0091C384.008 77.291 385.095 73.3497 385.095 68.1853C385.095 63.0208 384.042 59.1135 381.935 56.4633C379.828 53.7452 376.906 52.3861 373.169 52.3861C370.723 52.3861 368.616 53.0317 366.849 54.3228C365.083 55.6139 363.689 57.4486 362.67 59.827C361.719 62.2054 361.243 65.0254 361.243 68.2872C361.243 71.6169 361.719 74.4709 362.67 76.8493C363.689 79.1597 365.083 80.9265 366.849 82.1496C368.684 83.3728 370.757 83.9844 373.067 83.9844ZM432.793 94.687C427.425 94.687 422.736 93.6337 418.727 91.5272C414.786 89.4206 411.728 86.3967 409.553 82.4554C407.379 78.5141 406.291 73.7574 406.291 68.1853C406.291 62.6131 407.379 57.8564 409.553 53.9151C411.728 49.9738 414.752 46.9499 418.625 44.8433C422.566 42.7368 427.051 41.6835 432.08 41.6835C437.244 41.6835 441.627 42.7368 445.229 44.8433C448.83 46.8819 451.582 49.702 453.485 53.3035C455.388 56.8371 456.339 60.8803 456.339 65.4331C456.339 66.7922 456.305 68.0833 456.237 69.3065C456.169 70.5296 456.067 71.6169 455.931 72.5682H415.261V62.8849H449.815L443.088 65.3312C443.088 61.0502 442.103 57.7544 440.132 55.444C438.229 53.1336 435.511 51.9784 431.978 51.9784C429.396 51.9784 427.153 52.59 425.25 53.8131C423.416 55.0363 422.023 56.871 421.071 59.3174C420.12 61.6957 419.644 64.7196 419.644 68.3891C419.644 71.9906 420.154 74.9806 421.173 77.3589C422.26 79.6694 423.755 81.4022 425.658 82.5574C427.629 83.7126 429.973 84.2902 432.691 84.2902C435.681 84.2902 438.094 83.7126 439.928 82.5574C441.763 81.4022 443.19 79.8053 444.209 77.7667L455.32 82.0477C454.232 84.6979 452.568 86.9743 450.325 88.877C448.151 90.7797 445.534 92.2407 442.477 93.26C439.487 94.2114 436.259 94.687 432.793 94.687Z" fill="#E86D57"/>
</svg>
