<svg width="533" height="137" viewBox="0 0 533 137" fill="none" xmlns="http://www.w3.org/2000/svg">
<path d="M193.683 30.2698C205.844 30.2698 215.259 33.6436 221.928 40.3913C228.598 47.0604 231.932 56.6326 231.932 69.1079C231.932 81.5047 228.598 91.077 221.928 97.8246C215.259 104.572 205.844 107.946 193.683 107.946H163.671V30.2698H193.683ZM192.859 95C200.234 95 205.766 92.8031 209.453 88.4093C213.219 83.937 215.102 77.5032 215.102 69.1079C215.102 60.7126 213.219 54.3181 209.453 49.9242C205.766 45.452 200.234 43.2158 192.859 43.2158H179.913V95H192.859ZM271.565 109.123C265.366 109.123 259.953 107.907 255.323 105.475C250.773 103.042 247.242 99.5507 244.731 95C242.22 90.4493 240.965 84.957 240.965 78.5232C240.965 72.0894 242.22 66.5972 244.731 62.0464C247.242 57.4957 250.733 54.0042 255.206 51.5719C259.756 49.1396 264.935 47.9235 270.741 47.9235C276.704 47.9235 281.765 49.1396 285.923 51.5719C290.081 53.9257 293.259 57.1819 295.456 61.3403C297.653 65.4203 298.751 70.0887 298.751 75.3456C298.751 76.9148 298.712 78.4055 298.634 79.8178C298.555 81.2301 298.438 82.4855 298.281 83.5839H251.322V72.4033H291.219L283.452 75.2279C283.452 70.2848 282.314 66.4795 280.039 63.8118C277.842 61.1441 274.703 59.8103 270.623 59.8103C267.642 59.8103 265.052 60.5165 262.856 61.9288C260.737 63.341 259.129 65.4595 258.03 68.2841C256.932 71.0302 256.383 74.5217 256.383 78.7586C256.383 82.917 256.971 86.3693 258.148 89.1154C259.403 91.7831 261.129 93.7839 263.326 95.1177C265.602 96.4515 268.309 97.1184 271.447 97.1184C274.899 97.1184 277.685 96.4515 279.803 95.1177C281.922 93.7839 283.569 91.94 284.746 89.5862L297.575 94.5292C296.319 97.5892 294.397 100.218 291.808 102.415C289.297 104.611 286.276 106.298 282.745 107.475C279.293 108.574 275.566 109.123 271.565 109.123ZM346.826 49.1004H363.538L341.176 107.946H322.581L300.22 49.1004H317.52L331.996 95.5885L346.826 49.1004ZM378.237 40.6266C374.863 40.6266 372.353 39.9205 370.705 38.5082C369.057 37.0174 368.233 34.8598 368.233 32.0352C368.233 29.1321 369.057 26.9744 370.705 25.5621C372.353 24.0714 374.863 23.326 378.237 23.326C381.611 23.326 384.122 24.0714 385.769 25.5621C387.417 26.9744 388.241 29.1321 388.241 32.0352C388.241 34.8598 387.417 37.0174 385.769 38.5082C384.122 39.9205 381.611 40.6266 378.237 40.6266ZM386.24 49.1004V107.946H370.116V49.1004H386.24ZM435.579 109.123C431.97 109.123 428.675 108.378 425.693 106.887C422.79 105.318 420.358 103.199 418.397 100.531C416.513 97.7854 415.219 94.7254 414.513 91.3516L416.16 89.2331L415.219 107.946H400.978V23.326H417.102V65.6949L415.572 63.2234C416.827 58.8295 419.22 55.1811 422.751 52.2781C426.282 49.375 430.715 47.9235 436.05 47.9235C440.758 47.9235 444.956 49.1396 448.643 51.5719C452.409 54.0042 455.352 57.4957 457.47 62.0464C459.667 66.5972 460.765 72.1287 460.765 78.6409C460.765 84.9962 459.667 90.4493 457.47 95C455.352 99.5507 452.37 103.042 448.526 105.475C444.759 107.907 440.444 109.123 435.579 109.123ZM430.754 96.7654C435.069 96.7654 438.443 95.2354 440.876 92.1754C443.386 89.037 444.642 84.4862 444.642 78.5232C444.642 72.5602 443.426 68.0487 440.993 64.9887C438.561 61.8503 435.187 60.2811 430.872 60.2811C428.047 60.2811 425.615 61.0265 423.575 62.5172C421.535 64.008 419.927 66.1264 418.75 68.8725C417.651 71.6187 417.102 74.8748 417.102 78.6409C417.102 82.407 417.651 85.6632 418.75 88.4093C419.927 91.1554 421.535 93.2346 423.575 94.6469C425.693 96.0592 428.086 96.7654 430.754 96.7654ZM499.716 109.123C493.517 109.123 488.104 107.907 483.474 105.475C478.924 103.042 475.393 99.5507 472.882 95C470.371 90.4493 469.116 84.957 469.116 78.5232C469.116 72.0894 470.371 66.5972 472.882 62.0464C475.393 57.4957 478.884 54.0042 483.357 51.5719C487.907 49.1396 493.086 47.9235 498.892 47.9235C504.855 47.9235 509.916 49.1396 514.074 51.5719C518.232 53.9257 521.41 57.1819 523.607 61.3403C525.804 65.4203 526.902 70.0887 526.902 75.3456C526.902 76.9148 526.863 78.4055 526.785 79.8178C526.706 81.2301 526.589 82.4855 526.432 83.5839H479.473V72.4033H519.37L511.603 75.2279C511.603 70.2848 510.465 66.4795 508.189 63.8118C505.993 61.1441 502.854 59.8103 498.774 59.8103C495.793 59.8103 493.203 60.5165 491.007 61.9288C488.888 63.341 487.28 65.4595 486.181 68.2841C485.083 71.0302 484.534 74.5217 484.534 78.7586C484.534 82.917 485.122 86.3693 486.299 89.1154C487.554 91.7831 489.28 93.7839 491.477 95.1177C493.753 96.4515 496.46 97.1184 499.598 97.1184C503.05 97.1184 505.836 96.4515 507.954 95.1177C510.073 93.7839 511.72 91.94 512.897 89.5862L525.725 94.5292C524.47 97.5892 522.548 100.218 519.959 102.415C517.448 104.611 514.427 106.298 510.896 107.475C507.444 108.574 503.717 109.123 499.716 109.123Z" fill="#191F1E"/>
<path d="M0.000256786 28.1164L21.0927 38.872V101.184L74.7996 73.8238H124.014L0 137L0.000256786 28.1164ZM27.5962 14.0686V40.2249L72.8484 63.2776H124.213L27.5962 14.0686ZM0.000256786 0L21.0925 10.7531V32.2433L0.000256786 21.498V0Z" fill="#191F1E"/>
</svg>
