<svg width="527" height="96" viewBox="0 0 527 96" fill="none" xmlns="http://www.w3.org/2000/svg">
<path d="M147.8 8.46487C161.257 8.46487 171.719 12.1981 179.185 19.6646C186.739 27.0442 190.515 37.6361 190.515 51.4404C190.515 65.2446 186.739 75.88 179.185 83.3464C171.719 90.7261 161.257 94.4159 147.8 94.4159H117.457V8.46487H147.8ZM147.8 82.5651C156.916 82.5651 163.862 79.8737 168.637 74.4909C173.499 69.0213 175.93 61.3378 175.93 51.4404C175.93 41.543 173.499 33.9029 168.637 28.5201C163.862 23.0505 156.916 20.3157 147.8 20.3157H131.392V82.5651H147.8Z" fill="#191F1E"/>
<path d="M237.883 95.7182C231.372 95.7182 225.642 94.3725 220.693 91.6811C215.744 88.9897 211.881 85.1262 209.102 80.0907C206.411 74.9684 205.065 68.891 205.065 61.8587C205.065 54.8263 206.411 48.7924 209.102 43.7569C211.881 38.6346 215.701 34.7277 220.563 32.0363C225.425 29.3449 230.938 27.9992 237.102 27.9992C243.439 27.9992 248.822 29.3015 253.25 31.9061C257.678 34.5106 261.064 38.0702 263.408 42.5848C265.752 47.0994 266.924 52.2218 266.924 57.9518C266.924 59.5146 266.881 60.9905 266.794 62.3796C266.707 63.7687 266.577 64.9842 266.403 66.026H214.051V55.3473H260.282L253.38 57.4309C253.38 51.5272 251.904 47.0126 248.953 43.8871C246.001 40.6748 241.964 39.0686 236.841 39.0686C233.108 39.0686 229.852 39.9368 227.074 41.6732C224.296 43.4096 222.169 46.0142 220.693 49.487C219.217 52.8729 218.479 57.0402 218.479 61.9889C218.479 66.8508 219.26 70.9747 220.823 74.3607C222.386 77.7466 224.6 80.3078 227.465 82.0442C230.33 83.7805 233.716 84.6487 237.623 84.6487C241.964 84.6487 245.48 83.824 248.171 82.1744C250.863 80.5248 252.99 78.2241 254.552 75.2723L265.622 80.4814C264.059 83.6069 261.932 86.3417 259.241 88.6858C256.636 90.9431 253.511 92.6795 249.864 93.895C246.218 95.1105 242.224 95.7182 237.883 95.7182Z" fill="#191F1E"/>
<path d="M325.459 29.3015H340.045L314.129 94.4159H298.892L272.846 29.3015H288.083L306.576 82.3046L325.459 29.3015Z" fill="#191F1E"/>
<path d="M358.957 18.3623C355.919 18.3623 353.574 17.6243 351.925 16.1484C350.362 14.5856 349.581 12.4151 349.581 9.63693C349.581 6.85872 350.362 4.73165 351.925 3.25572C353.574 1.77979 355.919 1.04183 358.957 1.04183C361.909 1.04183 364.166 1.77979 365.729 3.25572C367.379 4.73165 368.203 6.85872 368.203 9.63693C368.203 12.4151 367.379 14.5856 365.729 16.1484C364.166 17.6243 361.909 18.3623 358.957 18.3623ZM365.859 29.3015V94.4159H351.925V29.3015H365.859Z" fill="#191F1E"/>
<path d="M422.563 95.7182C418.743 95.7182 415.227 94.9802 412.014 93.5043C408.889 92.0284 406.241 89.9881 404.07 87.3835C401.9 84.6921 400.294 81.6969 399.252 78.3978L400.945 76.1839L399.903 94.4159H387.661V0H401.596V45.7103L400.033 43.4964C401.683 38.9818 404.504 35.292 408.498 32.427C412.492 29.4751 417.31 27.9992 422.953 27.9992C428.163 27.9992 432.938 29.3449 437.279 32.0363C441.706 34.7277 445.179 38.5911 447.697 43.6267C450.215 48.6622 451.474 54.7829 451.474 61.9889C451.474 69.0213 450.171 75.0552 447.567 80.0907C445.049 85.1262 441.576 88.9897 437.148 91.6811C432.807 94.3725 427.946 95.7182 422.563 95.7182ZM419.568 84.5185C425.211 84.5185 429.595 82.5217 432.721 78.528C435.933 74.4475 437.539 68.891 437.539 61.8587C437.539 54.8263 435.976 49.3133 432.851 45.3196C429.725 41.3259 425.341 39.3291 419.698 39.3291C416.051 39.3291 412.882 40.2841 410.191 42.1941C407.5 44.0173 405.373 46.6219 403.81 50.0079C402.334 53.3938 401.596 57.4309 401.596 62.1192C401.596 66.7206 402.334 70.7143 403.81 74.1002C405.286 77.3993 407.369 79.9605 410.061 81.7837C412.839 83.6069 416.008 84.5185 419.568 84.5185Z" fill="#191F1E"/>
<path d="M497.959 95.7182C491.448 95.7182 485.718 94.3725 480.769 91.6811C475.82 88.9897 471.957 85.1262 469.179 80.0907C466.487 74.9684 465.141 68.891 465.141 61.8587C465.141 54.8263 466.487 48.7924 469.179 43.7569C471.957 38.6346 475.777 34.7277 480.639 32.0363C485.501 29.3449 491.014 27.9992 497.178 27.9992C503.516 27.9992 508.898 29.3015 513.326 31.9061C517.754 34.5106 521.14 38.0702 523.484 42.5848C525.828 47.0994 527 52.2218 527 57.9518C527 59.5146 526.957 60.9905 526.87 62.3796C526.783 63.7687 526.653 64.9842 526.479 66.026H474.127V55.3473H520.359L513.456 57.4309C513.456 51.5272 511.98 47.0126 509.029 43.8871C506.077 40.6748 502.04 39.0686 496.917 39.0686C493.184 39.0686 489.928 39.9368 487.15 41.6732C484.372 43.4096 482.245 46.0142 480.769 49.487C479.293 52.8729 478.555 57.0402 478.555 61.9889C478.555 66.8508 479.336 70.9747 480.899 74.3607C482.462 77.7466 484.676 80.3078 487.541 82.0442C490.406 83.7805 493.792 84.6487 497.699 84.6487C502.04 84.6487 505.556 83.824 508.247 82.1744C510.939 80.5248 513.066 78.2241 514.628 75.2723L525.698 80.4814C524.135 83.6069 522.008 86.3417 519.317 88.6858C516.712 90.9431 513.587 92.6795 509.94 93.895C506.294 95.1105 502.3 95.7182 497.959 95.7182Z" fill="#191F1E"/>
<path fill-rule="evenodd" clip-rule="evenodd" d="M0 52.1056C0 28.2289 19.3558 8.87305 43.2325 8.87305H86.465V23.2904H14.651V95.0046H0V52.1056ZM28.8217 37.6947H43.1319V80.9873H57.7569V66.4028C57.7569 50.5478 70.61 37.6947 86.465 37.6947V37.6947V52.1656H71.9341V81.3347H86.465V95.0046H72.0542C48.1775 95.0046 28.8217 75.6488 28.8217 51.7721V37.6947Z" fill="#191F1E"/>
</svg>
