<svg width="147" height="179" viewBox="0 0 147 179" fill="none" xmlns="http://www.w3.org/2000/svg">
<path d="M129.845 154.122C117.781 140.842 105.966 133.476 94.6579 132.135C108.273 124.444 112.18 109.977 113.761 104.112C113.996 103.242 114.199 102.49 114.345 102.099C114.383 101.996 114.418 101.92 114.446 101.865C114.753 101.907 115.302 102.081 115.689 102.202C117.912 102.894 121.632 104.06 125.476 99.9653C129.231 95.9677 131.664 87.8812 131.258 80.739C130.991 76.008 129.516 72.3771 126.993 70.2366C124.953 68.5069 123.027 68.1056 121.551 68.1638C122.246 66.4719 122.745 64.706 123.027 62.8756L125.125 64.3724C125.731 64.802 126.525 64.8587 127.18 64.514C127.838 64.1709 128.246 63.4879 128.236 62.745C128.203 60.2961 128.326 57.9557 128.444 55.691C128.71 50.557 128.962 45.7095 127.498 40.1538C125.539 32.7157 121.681 26.9003 115.735 22.4447C115.776 22.3707 115.815 22.2999 115.852 22.2322C116.088 21.7931 116.136 21.716 116.398 21.5791C117.087 21.2202 117.499 20.4915 117.454 19.7156C117.407 18.9413 116.909 18.2661 116.182 17.9922C114.234 17.2588 111.69 15.2978 109.232 13.4029C106.544 11.3301 103.763 9.1865 101.263 8.24533C95.4323 6.04979 88.8945 3.93296 82.8493 5.14641C83.0397 4.05887 83.0995 2.94772 83.024 1.835C82.972 1.07482 82.4841 0.410623 81.7727 0.135197C81.0629 -0.14495 80.2524 0.0187693 79.7031 0.547587C77.7452 2.41733 74.607 3.36478 70.1089 3.4419C69.196 3.45921 68.2706 3.44821 67.3514 3.43719C64.2651 3.40572 61.0764 3.36791 57.9413 4.26658C54.4977 5.2534 50.5631 7.56541 49.1198 11.1334C46.076 10.1261 42.0044 9.93408 39.4689 11.7661C37.0766 13.4957 33.6267 16.0202 31.3068 17.9875C30.49 18.68 27.6335 20.8692 25.0555 19.9438C24.2182 19.6432 23.277 19.9423 22.7702 20.6788C22.265 21.4154 22.3154 22.3991 22.8961 23.0758C23.9695 24.3286 25.4962 25.4539 27.1975 26.3101C24.6227 28.1515 22.4854 30.9483 21.1019 34.4061C19.8979 37.4232 20.4661 40.8951 21.0138 44.2537C21.3742 46.4634 21.7158 48.5488 21.5096 50.2438C20.9823 54.6034 20.1529 59.1173 17.6804 62.6128C17.2885 63.1668 17.2098 63.8829 17.471 64.5077C17.7339 65.1325 18.2973 65.5811 18.9678 65.6897C20.2961 65.9085 21.6685 65.7401 22.9072 65.2459C23.3117 66.1965 23.8704 67.2054 24.4952 68.2441C23.2644 68.4361 21.8511 68.9854 20.3764 70.235C17.8535 72.3739 16.3788 76.008 16.1112 80.739C15.7067 87.8812 18.1384 95.9677 21.8936 99.9653C25.737 104.053 29.456 102.891 31.6814 102.2C32.067 102.079 32.6179 101.907 32.9248 101.863C32.9531 101.918 32.9862 101.996 33.0239 102.098C33.1703 102.488 33.3733 103.24 33.6078 104.112C35.1911 109.977 39.0959 124.444 52.7114 132.135C41.4047 133.476 29.5882 140.842 17.5277 154.122C7.69423 164.947 1.50422 175.599 1.24453 176.047C0.701546 176.988 1.0242 178.191 1.96537 178.735C2.27542 178.913 2.61379 178.998 2.94745 178.998C3.62736 178.998 4.28835 178.646 4.65349 178.015C4.86911 177.64 24.097 144.787 47.3634 137.338C47.6105 140.346 48.3581 143.21 49.5306 145.85C46.8975 149.396 37.6275 162.304 31.4831 176.238C31.0456 177.231 31.4957 178.392 32.4904 178.83C32.7469 178.943 33.0176 178.997 33.282 178.997C34.0375 178.997 34.7599 178.559 35.0841 177.823C40.3424 165.901 48.1723 154.467 51.6191 149.673C56.3501 156.843 64.4697 161.593 73.6847 161.593C82.8996 161.593 91.0192 156.845 95.7502 149.673C99.1985 154.467 107.028 165.901 112.287 177.823C112.611 178.559 113.332 178.997 114.089 178.997C114.353 178.997 114.624 178.943 114.88 178.83C115.875 178.392 116.325 177.229 115.888 176.238C109.743 162.303 100.472 149.396 97.8387 145.85C99.0112 143.21 99.7588 140.347 100.006 137.34C123.26 144.792 142.503 177.642 142.719 178.015C143.262 178.956 144.468 179.282 145.406 178.734C146.347 178.191 146.669 176.988 146.126 176.047C145.867 175.597 139.677 164.947 129.845 154.122ZM37.4087 103.088C37.138 102.082 36.9224 101.287 36.7162 100.727C35.8962 98.522 34.453 97.946 33.0822 97.946C32.1017 97.946 31.1605 98.2403 30.5105 98.4418C28.5054 99.0666 26.9189 99.5608 24.7643 97.2692C21.7803 94.09 19.7044 86.9274 20.0427 80.9609C20.2458 77.3851 21.2688 74.6387 22.9245 73.2348C24.0214 72.3031 25.0586 71.9427 26.0848 72.1315C26.5192 72.2102 26.9394 72.3991 27.347 72.6304C28.8878 74.9078 31.1872 78.3105 31.1982 79.1998C30.83 80.2228 31.3604 81.348 32.3818 81.7179C32.6021 81.7982 32.8272 81.8344 33.0491 81.8344C33.855 81.8344 34.6104 81.337 34.9 80.5344C34.9 80.5344 34.9015 80.5296 34.9031 80.5265C36.6139 75.7734 37.4244 70.7748 37.319 65.77L38.7717 67.7389C39.4012 68.5935 40.5989 68.7949 41.4787 68.1858C42.3538 67.5768 42.5836 66.3838 42.0012 65.493C41.5134 64.747 41.3764 63.8593 41.5936 62.8505C41.9918 61.0028 43.5609 58.9347 45.4999 57.7023C46.7212 56.9264 48.0638 56.2937 49.4818 55.6217C51.9921 54.4366 54.5858 53.2122 56.6681 51.0811C57.8422 49.8803 58.7487 48.4449 59.3688 46.8931C62.9997 52.0081 68.6656 55.3731 75.0288 55.7618C75.8629 55.7964 76.7096 55.2818 77.0024 54.4555C77.2951 53.6276 77.0055 52.7069 76.2925 52.1954C75.7448 51.8051 75.2554 51.3392 74.8304 50.8183C78.7651 52.5511 83.5842 52.7195 87.7424 52.8659L87.9328 52.8722C93.6932 53.0752 100.173 54.9623 101.087 59.6492C101.257 60.529 102.005 61.1837 102.899 61.2372C103.78 61.264 104.614 60.732 104.89 59.8774L104.964 59.6477C108.107 65.3199 109.086 72.248 107.494 78.523C107.298 79.2989 107.59 80.1173 108.239 80.5911C108.882 81.0664 109.753 81.0994 110.436 80.6807C112.084 79.6656 113.566 78.5403 114.914 77.3379C115.573 77.3017 116.198 76.9491 116.535 76.3384C117.107 75.306 119.078 72.5344 121.289 72.13C122.312 71.9395 123.351 72.3015 124.45 73.2332C126.107 74.6387 127.13 77.3819 127.333 80.9577C127.671 86.9242 125.597 94.0885 122.61 97.2677C120.458 99.5592 118.872 99.065 116.865 98.4402C115.307 97.9539 112.068 96.9387 110.661 100.724C110.453 101.284 110.239 102.077 109.968 103.083C107.746 111.318 101.843 133.193 73.6894 133.193C45.5346 133.196 39.631 111.321 37.4087 103.088ZM88.9071 134.73C88.4506 142.74 81.8089 149.122 73.6862 149.122C65.5651 149.122 58.9234 142.74 58.467 134.73C62.7526 136.233 67.7779 137.13 73.6862 137.13C79.5945 137.13 84.6199 136.233 88.9071 134.73ZM73.6862 157.658C61.6761 157.658 51.8631 148.19 51.2509 136.329C52.3604 136.12 53.4794 135.991 54.6031 135.912C55.6324 145.536 63.7961 153.056 73.6878 153.056C83.5795 153.056 91.7447 145.536 92.774 135.912C93.8962 135.989 95.0136 136.12 96.1248 136.329C95.5094 148.19 85.6948 157.658 73.6862 157.658ZM60.3336 61.5001C60.1558 62.3642 57.9964 62.6395 55.4767 62.7576C52.9569 62.8504 50.7818 62.756 50.5316 61.9109C50.2782 61.0924 52.3919 59.7311 55.3444 59.613C58.297 59.4824 60.5177 60.6628 60.3336 61.5001ZM87.0389 61.5001C86.8547 60.6644 89.0755 59.484 92.0265 59.6114C94.979 59.7295 97.0927 61.0924 96.8393 61.9093C96.5906 62.7544 94.414 62.8489 91.8942 62.756C89.376 62.6396 87.2167 62.3626 87.0389 61.5001ZM60.3336 76.6485C60.3336 78.9259 58.4874 80.7704 56.2116 80.7704C53.9358 80.7704 52.0897 78.9259 52.0897 76.6485C52.0897 74.3727 53.9358 72.5265 56.2116 72.5265C58.4874 72.5265 60.3336 74.3711 60.3336 76.6485ZM87.0389 76.6485C87.0389 74.3727 88.885 72.5265 91.1608 72.5265C93.4367 72.5265 95.2828 74.3711 95.2828 76.6485C95.2828 78.9259 93.4367 80.7704 91.1608 80.7704C88.885 80.7704 87.0389 78.9243 87.0389 76.6485ZM70.9037 97.455C70.3827 96.8443 70.3402 96.251 70.6188 95.9283C71.2326 95.3082 72.5295 95.5191 73.7319 95.5049C74.9328 95.5726 76.2375 95.4184 76.8229 96.0652C77.0874 96.3989 77.0181 96.9891 76.472 97.5777C75.9416 98.1585 74.8997 98.681 73.6626 98.6527C72.4256 98.6259 71.4073 98.0593 70.9037 97.455ZM73.702 111.464C71.3679 111.382 69.4966 110.457 68.3556 109.638C67.2082 108.787 66.7187 108 66.9359 107.638C67.4018 106.826 70.4299 108.165 73.82 108.318C77.1818 108.527 79.9235 106.908 80.5074 107.638C80.7607 107.964 80.3736 108.829 79.2215 109.763C78.0977 110.688 76.0407 111.574 73.702 111.464Z" fill="black"/>
</svg>
