<svg width="109" height="181" viewBox="0 0 109 181" fill="none" xmlns="http://www.w3.org/2000/svg">
<path d="M62.8957 138.86C62.6272 137.86 61.845 137.111 60.7782 137.145C59.4308 137.188 58.6647 138.654 59.2612 139.821C59.7507 140.78 60.8942 141.319 61.8935 140.759C62.0479 140.673 62.1751 140.568 62.2881 140.455C62.7938 140.114 63.0602 139.472 62.8957 138.86Z" fill="black"/>
<path d="M61.6028 146.959C61.3929 146.87 61.1638 146.808 60.9074 146.803C59.7245 146.782 58.9019 147.943 59.1744 149.058C59.4227 150.074 60.4613 150.71 61.4736 150.393C61.9339 150.249 62.271 149.955 62.486 149.591C62.5788 149.459 62.6525 149.312 62.6858 149.142C62.6919 149.108 62.6899 149.076 62.6949 149.043C62.7989 148.585 62.7534 148.085 62.5263 147.638C62.3527 147.296 61.9854 147.05 61.6028 146.959Z" fill="black"/>
<path d="M98.2647 19.5835C91.3611 10.1496 80.5595 3.58507 68.6336 4.41876C58.1621 -0.875035 45.7991 -1.52505 34.9199 3.0804C24.2546 7.58896 16.711 16.8685 11.9017 27.1462C6.1618 39.4214 3.50532 53.0833 1.74005 66.4253C0.721659 74.1919 0.140304 82.0069 0.0242343 89.832C-0.0343052 93.526 0.0141401 97.2201 0.15948 100.914C0.24628 102.97 -0.00503508 105.723 1.43928 107.439C3.01985 109.33 6.39394 109.718 8.60432 110.29C12.4922 111.289 16.4486 112.026 20.4243 112.52C28.0839 113.461 35.7344 113.383 43.3647 112.491C42.9771 113.208 42.5209 113.906 41.9688 114.556C39.4385 117.532 35.5598 119.064 32.5349 121.47C30.8191 122.837 29.296 124.378 27.9486 126.066C25.709 128.849 23.9538 132.019 22.5862 135.355C17.0592 148.851 17.0108 164.763 17.8354 179.075C17.9424 180.927 20.8512 180.946 20.7442 179.075C19.8712 163.929 19.639 145.982 27.2411 132.311C28.5108 130.022 30.0147 127.918 31.8274 126.066C32.5551 125.3 33.3403 124.572 34.1831 123.894C34.8906 123.313 35.6476 122.789 36.4126 122.284C35.8696 123.515 35.589 124.814 35.6274 126.066C35.6758 128.975 37.2948 131.69 40.7567 133.028C45.0613 134.696 50.2976 133.727 53.7878 130.818C54.0401 139.66 54.2046 148.504 54.2531 157.346C54.2531 158.287 54.9808 158.752 55.7075 158.752C55.7367 158.752 55.7559 158.762 55.7751 158.762C58.1217 158.975 60.4492 158.704 62.6888 157.986C64.4632 157.414 63.7072 154.602 61.9127 155.174C60.3321 155.688 58.7616 155.921 57.1427 155.911C57.0841 147.292 56.9297 138.671 56.6774 130.052C59.4994 133.057 64.1049 134.337 68.2057 133.291C72.0743 132.301 74.6531 129.5 75.6523 126.067C76.0015 124.913 76.1559 123.691 76.1277 122.441C76.8059 122.896 77.4751 123.371 78.115 123.895C78.9588 124.573 79.744 125.301 80.4707 126.067C82.2834 127.919 83.7863 130.022 85.057 132.312C92.659 145.983 92.4259 163.931 91.5529 179.076C91.4459 180.947 94.3547 180.928 94.4617 179.076C95.2863 164.765 95.2368 148.853 89.7109 135.356C88.3443 132.02 86.5891 128.85 84.3585 126.067C83.001 124.379 81.479 122.838 79.7632 121.471C78.2311 120.258 76.486 119.26 74.8085 118.193C74.6824 118.067 74.5269 117.961 74.3624 117.903C72.8787 116.933 71.4728 115.895 70.3292 114.558C69.437 113.51 68.788 112.348 68.2935 111.125C75.5655 111.261 82.886 111.319 90.0904 110.126C94.5989 109.379 102.317 108.381 104.576 103.679C105.769 101.206 105.759 97.9195 106.118 95.262C106.632 91.5004 107.068 87.7286 107.417 83.9569C108.173 75.7351 108.571 67.4537 108.484 59.2027C108.34 45.5781 106.545 30.8796 98.2647 19.5835ZM100.03 67.6465C98.9924 72.688 94.8331 75.2486 90.3921 75.3162C90.4507 73.3773 90.4598 71.4475 90.5082 69.547C90.6051 65.533 90.6919 61.519 90.7898 57.4949C96.0352 56.8934 101.261 61.6058 100.03 67.6465ZM10.7773 70.1193C8.9929 63.6426 13.8022 57.3012 19.7359 58.7656C19.7945 61.5776 19.852 64.3986 19.9297 67.2206C20.0175 70.3817 20.1528 73.5913 20.502 76.7615C16.1297 76.7898 12.2126 75.3354 10.7773 70.1193ZM24.0608 80.9309C22.2864 72.2237 22.1895 62.9542 22.238 53.8009C24.1577 53.8392 26.0481 53.1317 27.6095 51.7258C30.6636 55.8467 36.0745 53.7615 38.9349 49.9322C42.0082 54.2571 48.4758 54.1693 51.2968 49.7677C54.0017 52.9672 59.1017 53.1519 62.7867 50.4076C67.2377 47.092 69.0504 41.0504 69.9134 35.1651C72.1339 43.0871 76.274 52.7542 83.0222 47.847C84.0891 49.7566 85.9603 50.5913 88.0445 50.669C87.9476 54.7416 87.8507 58.8141 87.7538 62.8765C87.5893 69.7903 88.0445 77.1107 86.6486 83.9074C83.6621 98.403 67.373 103.658 54.1764 103.842C39.4385 104.055 27.0766 95.6688 24.0608 80.9309ZM44.4709 130.836C40.9807 130.632 38.7693 128.577 38.5665 126.066C38.4403 124.544 39.0318 122.866 40.5053 121.324C44.1126 123.778 48.0781 125.357 52.1406 126.066C52.6452 126.153 53.159 126.23 53.6727 126.289C53.6828 126.405 53.6828 126.531 53.6828 126.647C51.8691 129.721 48.0297 131.04 44.4709 130.836ZM72.473 126.066C69.7479 131.574 60.4986 132.902 57.6473 126.483C59.1017 126.454 60.5562 126.318 61.9914 126.066C65.8792 125.397 69.6803 123.923 73.1714 121.644C73.3844 123.312 73.1038 124.795 72.473 126.066ZM69.9326 118.182C70.408 118.59 70.9025 118.968 71.4062 119.336C62.1175 125.202 50.8699 124.95 41.765 118.667C41.9688 118.511 42.1727 118.357 42.3665 118.182C46.0222 115.05 47.5735 110.843 48.0872 106.334C50.0947 106.625 52.1305 106.78 54.1764 106.751C57.3375 106.713 60.7409 106.383 64.1442 105.713C64.5903 110.455 66.1124 114.915 69.9326 118.182Z" fill="black"/>
<path d="M58.8403 70.0618C59.8557 76.8948 63.7163 82.0806 71.9623 82.3299C82.3187 82.6437 85.067 73.9849 84.7602 65.204C84.735 64.4803 84.1647 63.8566 83.4168 63.8606C79.8318 63.8778 76.1357 63.8576 72.4689 63.9717C68.2834 64.1019 64.0937 64.12 59.9061 64.0282C59.1683 64.012 58.5779 64.657 58.5628 65.3716C58.5496 65.963 58.5557 66.5484 58.5759 67.1257C56.3161 66.8825 54.0633 66.8583 51.8025 67.052C51.8125 66.4384 51.8105 65.8217 51.7893 65.204C51.7641 64.4803 51.1938 63.8566 50.4459 63.8606C46.8609 63.8778 43.1648 63.8576 39.498 63.9717C35.3125 64.1019 31.1228 64.12 26.9353 64.0282C26.1975 64.012 25.607 64.657 25.5919 65.3716C25.3961 74.3907 28.9397 82.0261 38.9914 82.3309C47.4443 82.5862 50.8265 76.8645 51.6177 69.979C54.028 69.76 56.4301 69.7852 58.8403 70.0618ZM68.2359 66.7382C68.3681 66.7775 68.5115 66.8038 68.675 66.7987C73.1482 66.6675 77.6214 66.5938 82.0967 66.5625C82.0967 73.3127 80.183 79.8621 71.9623 79.6421C63.9686 79.4281 61.405 73.5449 61.2505 66.7291C63.58 66.7684 65.9085 66.7684 68.2359 66.7382ZM38.9904 79.6431C30.9967 79.4291 28.4331 73.5459 28.2786 66.7301C30.6081 66.7684 32.9366 66.7684 35.264 66.7382C35.3972 66.7775 35.5396 66.8038 35.7031 66.7987C40.1763 66.6675 44.6495 66.5938 49.1248 66.5625C49.1238 73.3127 47.2111 79.8621 38.9904 79.6431Z" fill="black"/>
<path d="M40.1854 76.6565C42.1989 75.8764 42.5713 73.231 42.1717 71.3708C41.9819 70.4897 41.5711 69.5117 40.8384 68.9515C39.8159 68.1693 38.6371 68.4691 37.5884 69.0111C37.2493 69.1867 37.0464 69.432 36.9425 69.7015C35.9342 70.9328 35.6859 72.8363 36.1734 74.3049C36.7255 75.9682 38.3848 77.355 40.1854 76.6565Z" fill="black"/>
<path d="M73.1574 76.6565C75.1709 75.8764 75.5434 73.231 75.1437 71.3708C74.9539 70.4897 74.5431 69.5117 73.8104 68.9515C72.788 68.1693 71.6091 68.4691 70.5604 69.0111C70.2213 69.1867 70.0184 69.432 69.9145 69.7015C68.9072 70.9328 68.6579 72.8363 69.1464 74.3049C69.6975 75.9682 71.3568 77.355 73.1574 76.6565Z" fill="black"/>
<path d="M30.3155 60.7016C35.0965 60.0849 39.8826 59.8406 44.7021 59.9658C46.5743 60.0142 46.5733 57.1054 44.7021 57.056C39.8826 56.9308 35.0965 57.1751 30.3155 57.7917C28.4846 58.0279 28.4614 60.9408 30.3155 60.7016Z" fill="black"/>
<path d="M64.6762 58.9846C69.8731 58.6919 75.0518 58.7303 80.2437 59.1199C82.0977 59.2591 82.5984 56.3907 80.7311 56.2514C75.2819 55.8426 69.8398 55.7831 64.3835 56.0909C62.5132 56.1959 62.809 59.0896 64.6762 58.9846Z" fill="black"/>
<path d="M61.7521 86.4599C62.6635 84.8228 60.1514 83.3532 59.24 84.9913C57.9864 87.2421 55.1523 87.1421 53.9775 84.8763C53.1155 83.2139 50.6034 84.6835 51.4653 86.3448C53.6383 90.5334 59.4731 90.5546 61.7521 86.4599Z" fill="black"/>
</svg>
