<svg width="149" height="179" viewBox="0 0 149 179" fill="none" xmlns="http://www.w3.org/2000/svg">
<path d="M131.453 153.625C119.148 140.078 107.096 132.564 95.5604 131.196C109.45 123.35 113.433 108.592 115.048 102.61C115.287 101.722 115.496 100.955 115.644 100.557C115.682 100.451 115.717 100.374 115.746 100.318C116.058 100.361 116.62 100.538 117.015 100.661C119.283 101.366 123.079 102.554 126.998 98.3799C130.828 94.3035 133.311 86.0544 132.896 78.7686C132.623 73.9409 131.119 70.237 128.545 68.0535C126.139 66.0129 123.886 65.7801 122.321 65.9969C123.133 59.6262 122.192 52.1943 121.757 49.3462C121.796 49.3109 121.825 49.2707 121.863 49.2338C122.664 48.8035 123.413 48.3026 124.042 47.6524C127.19 44.398 127.446 39.1384 124.755 32.8448C117.363 15.5488 100.852 3.50426 80.5907 0.630414C60.4271 -2.22738 41.2863 4.7421 29.3879 19.2799L29.1118 19.6203C28.4776 20.4086 27.882 21.2097 27.3409 22.0028C23.7478 27.2769 24.9022 31.1735 25.9104 33.0262C26.0244 33.2365 26.1802 33.4228 26.3102 33.6219C23.8875 37.7592 21.6944 44.8396 26.5767 49.343C26.1416 52.1912 25.1992 59.623 26.0116 65.9936C24.443 65.7785 22.1937 66.0097 19.787 68.0503C17.2134 70.2322 15.7091 73.9377 15.4361 78.7654C15.0235 86.0512 17.504 94.3003 21.3347 98.3766C25.2538 102.551 29.0492 101.363 31.3178 100.658C31.7111 100.534 32.273 100.359 32.5845 100.314C32.6134 100.371 32.6487 100.449 32.6873 100.554C32.835 100.952 33.0437 101.719 33.2829 102.607C34.898 108.589 38.8813 123.347 52.7705 131.193C41.235 132.561 29.1824 140.075 16.8779 153.622C6.84828 164.665 0.533843 175.531 0.268935 175.988C-0.284964 176.948 0.044165 178.175 1.00426 178.73C1.32054 178.912 1.66572 178.999 2.00609 178.999C2.69967 178.999 3.37398 178.639 3.74485 177.995C3.95036 177.639 20.9928 148.525 42.5129 138.4C40.5029 156.428 53.668 167.532 54.2652 168.025C54.6361 168.332 55.0888 168.484 55.5416 168.484C56.0072 168.484 56.4728 168.322 56.8469 168.001L74.1622 153.171L91.4776 168.001C91.8533 168.322 92.3173 168.484 92.7828 168.484C93.2356 168.484 93.6883 168.332 94.0592 168.025C94.6581 167.531 107.82 156.428 105.813 138.403C127.324 148.533 144.376 177.64 144.581 177.995C145.135 178.957 146.365 179.286 147.323 178.729C148.284 178.175 148.613 176.948 148.057 175.988C147.797 175.532 141.483 164.668 131.453 153.625ZM37.1586 101.564C36.8824 100.538 36.6625 99.7285 36.4506 99.1569C35.6141 96.9076 34.1418 96.32 32.7435 96.32C31.7448 96.32 30.7847 96.6202 30.1217 96.8257C28.073 97.4631 26.4579 97.9672 24.26 95.6296C21.2143 92.3865 19.0983 85.0799 19.4435 78.9934C19.649 75.3441 20.6941 72.5441 22.3831 71.112C23.5022 70.1615 24.557 69.7891 25.607 69.9866C26.2155 70.0973 26.8031 70.3911 27.3522 70.7716L30.6996 74.6264C30.7462 74.681 30.8024 74.7228 30.8554 74.7709C30.8875 74.8014 30.918 74.8335 30.9517 74.8608C31.109 74.9893 31.2808 75.0904 31.4671 75.1659C31.5024 75.1803 31.5377 75.1884 31.573 75.2012C31.7657 75.267 31.9648 75.3088 32.1703 75.3136C32.1799 75.3136 32.1879 75.3168 32.196 75.3168C32.2024 75.3168 32.2088 75.3184 32.2152 75.3184C32.3068 75.3184 32.3999 75.312 32.493 75.2991C32.6022 75.2847 32.7049 75.2462 32.8077 75.214C32.8382 75.2044 32.8687 75.2092 32.8992 75.198C32.9104 75.1932 32.9184 75.1852 32.9297 75.1803C33.1272 75.1049 33.307 74.9973 33.4691 74.8656C33.5109 74.8319 33.5478 74.7902 33.588 74.7533C33.7035 74.6425 33.8063 74.5189 33.893 74.3824C33.9235 74.3342 33.9556 74.2909 33.9829 74.2395C33.9973 74.2106 34.0198 74.1882 34.0327 74.1593C39.8189 61.7872 41.1659 54.0712 41.4549 50.568C45.5971 50.6162 55.5785 50.6161 66.0785 49.6079C78.6143 48.4037 87.9005 46.1817 93.8858 42.9868C93.9886 43.0349 94.0929 43.0831 94.1957 43.1313C99.4409 47.2863 104.492 49.2723 106.905 50.0526C107.207 53.604 108.534 63.0154 114.335 74.2299C114.343 74.2443 114.354 74.2555 114.362 74.2716C114.377 74.2989 114.398 74.3198 114.414 74.3455C114.512 74.506 114.629 74.6457 114.764 74.7709C114.798 74.8014 114.83 74.8319 114.865 74.8608C115.037 74.9989 115.223 75.1145 115.43 75.1916C115.432 75.1916 115.435 75.1916 115.436 75.1932C115.578 75.2445 115.725 75.2831 115.88 75.3023C115.96 75.312 116.039 75.3168 116.117 75.3168C116.345 75.3168 116.565 75.267 116.777 75.1932C116.8 75.1851 116.822 75.1803 116.845 75.1707C117.042 75.0936 117.223 74.9877 117.389 74.8512C117.413 74.832 117.434 74.8095 117.456 74.7886C117.516 74.7356 117.578 74.6874 117.631 74.6264L120.979 70.7716C121.528 70.3911 122.115 70.0973 122.724 69.9866C123.774 69.7907 124.829 70.1631 125.948 71.112C127.638 72.5457 128.682 75.3441 128.889 78.9934C129.234 85.0799 127.118 92.3881 124.071 95.6296C121.873 97.9705 120.256 97.4631 118.209 96.8257C116.62 96.328 113.314 95.2989 111.88 99.1553C111.668 99.7269 111.448 100.536 111.172 101.562C108.905 109.962 102.883 132.277 74.1654 132.277C45.4478 132.278 39.4256 109.964 37.1586 101.564ZM55.609 163.783C52.4269 160.548 44.2999 150.663 46.8606 136.644C49.4294 135.783 52.048 135.233 54.6971 135.05C55.5769 143.278 61.5783 149.978 69.4404 151.936L55.609 163.783ZM74.1654 148.525C65.881 148.525 59.1042 142.014 58.6386 133.844C63.012 135.377 68.1384 136.292 74.1654 136.292C80.1925 136.292 85.3189 135.377 89.6923 133.844C89.2267 142.014 82.4514 148.525 74.1654 148.525ZM92.7347 163.793L78.8936 151.938C86.7542 149.979 92.7556 143.279 93.637 135.051C96.2861 135.234 98.9046 135.786 101.475 136.647C104.068 150.798 95.9457 160.577 92.7347 163.793ZM50.5469 59.5588C50.2884 58.7239 52.4446 57.3352 55.4565 57.2147C58.4668 57.0831 60.7338 58.2872 60.5443 59.1414C60.3629 60.0228 58.1602 60.3037 55.5898 60.4241C53.021 60.5189 50.8005 60.4209 50.5469 59.5588ZM87.7865 59.1414C87.5987 58.2889 89.864 57.0847 92.8744 57.2147C95.8863 57.3352 98.0425 58.7255 97.784 59.5588C97.5303 60.4209 95.3099 60.5173 92.7395 60.4226C90.1723 60.3038 87.9679 60.0212 87.7865 59.1414ZM52.1347 74.5943C52.1347 72.2728 54.018 70.3895 56.3395 70.3895C58.6611 70.3895 60.5443 72.2712 60.5443 74.5943C60.5443 76.9175 58.6611 78.7991 56.3395 78.7991C54.018 78.7991 52.1347 76.9159 52.1347 74.5943ZM91.9913 70.3895C94.3129 70.3895 96.1961 72.2712 96.1961 74.5943C96.1961 76.9175 94.3129 78.7991 91.9913 78.7991C89.6698 78.7991 87.7865 76.9175 87.7865 74.5943C87.7881 72.2712 89.6698 70.3895 91.9913 70.3895ZM80.6934 106.568C82.506 107.164 84.2464 107.409 85.8503 107.409C91.2833 107.409 95.167 104.76 95.2312 104.714C95.5748 104.473 95.6744 104.007 95.4608 103.646C95.2457 103.285 94.7897 103.147 94.4124 103.339C92.6913 104.206 90.3939 102.62 87.4895 100.613C84.6092 98.6239 81.0996 96.2156 76.8627 95.4514C77.0778 95.0324 77.0682 94.647 76.8739 94.4014C76.2767 93.7415 74.9457 93.8989 73.7207 93.8299C72.4925 93.8443 71.1712 93.6292 70.545 94.2618C70.2914 94.554 70.3203 95.0693 70.7008 95.6184C66.809 96.5191 63.5482 98.7475 60.8462 100.615C57.9434 102.62 55.6476 104.201 53.9233 103.339C53.546 103.148 53.09 103.286 52.8749 103.646C52.6597 104.007 52.7593 104.473 53.1028 104.714C53.1847 104.77 59.2664 108.914 66.8781 106.807C67.0755 107.207 67.5106 107.706 68.2363 108.246C69.4003 109.081 71.3092 110.023 73.6902 110.108C76.0744 110.222 78.1744 109.317 79.3207 108.373C80.1909 107.668 80.6292 107.001 80.6934 106.568ZM68.8576 106.125C70.5884 105.407 72.3721 104.351 74.167 102.827C75.9491 104.339 77.72 105.38 79.4395 106.096C78.1872 106.33 76.1563 107.046 73.809 106.9C71.9193 106.815 70.1597 106.377 68.8576 106.125Z" fill="black"/>
</svg>
