<svg width="145" height="179" viewBox="0 0 145 179" fill="none" xmlns="http://www.w3.org/2000/svg">
<path d="M128.07 154.273C116.082 141.075 104.338 133.754 93.1007 132.421C106.633 124.777 110.515 110.399 112.087 104.572C112.32 103.706 112.523 102.958 112.667 102.57C112.705 102.468 112.739 102.392 112.767 102.337C113.071 102.379 113.618 102.551 114.003 102.672C116.21 103.358 119.908 104.516 123.729 100.449C127.462 96.4775 129.878 88.4422 129.476 81.3438C129.21 76.6403 127.745 73.0301 125.237 70.9028C123.495 69.4246 121.838 68.9287 120.473 68.8521C120.518 68.7176 120.559 68.6018 120.604 68.4642C122.882 61.5723 125.555 51.8023 126.229 45.0496C126.695 40.4008 126.878 35.0027 124.709 30.2053C122.819 26.0258 118.513 22.1684 113.503 21.9745C111.798 12.5908 107.189 7.01444 97.9435 2.97566C91.6288 0.217972 82.0731 -2.22689 64.0785 3.40268C52.8835 6.90494 41.7886 7.49151 33.6406 5.00443C33.0196 4.81829 32.3423 4.94655 31.8371 5.35794C31.3319 5.76932 31.0644 6.40281 31.1223 7.05196C31.2896 8.9071 32.0013 10.6903 33.1057 12.1841C31.8199 12.6503 30.3714 13.3307 28.7619 14.2223C25.7164 15.9116 23.539 18.2407 21.6369 20.5072C17.7405 25.1545 17.8093 32.1934 17.8625 37.848L17.8719 38.9023C17.936 48.4862 20.1212 59.3965 23.6672 68.8755C22.3783 69.021 20.8611 69.5607 19.2765 70.9043C16.7691 73.0317 15.3035 76.6418 15.0375 81.3454C14.6371 88.4437 17.0538 96.4791 20.7844 100.451C24.6042 104.516 28.302 103.362 30.5106 102.673C30.8954 102.553 31.4414 102.381 31.7464 102.339C31.7745 102.393 31.8089 102.47 31.8465 102.572C31.9904 102.96 32.1937 103.709 32.4268 104.574C33.9988 110.402 37.8812 124.78 51.4131 132.423C40.1743 133.756 28.4318 141.076 16.4438 154.275C6.67218 165.033 0.520166 175.618 0.262073 176.066C-0.277578 177.001 0.0430853 178.196 0.976915 178.737C1.28506 178.914 1.62136 178.999 1.95297 178.999C2.6287 178.999 3.28568 178.648 3.64701 178.021C3.77841 177.793 11.0519 165.373 21.9982 154.109C27.4307 159.032 31.2005 165.913 32.3533 173.147C32.5066 174.109 33.3372 174.796 34.282 174.796C34.3852 174.796 34.4869 174.788 34.5917 174.771C35.6585 174.602 36.3842 173.599 36.2153 172.532C34.9358 164.498 30.7734 156.857 24.7716 151.356C31.0566 145.37 38.352 140.073 46.0979 137.594C47.2023 151.068 58.5021 161.702 72.2561 161.702C86.0102 161.702 97.3084 151.07 98.4143 137.596C106.156 140.077 113.449 145.375 119.736 151.361C113.739 156.862 109.578 164.5 108.299 172.532C108.128 173.599 108.855 174.6 109.922 174.771C110.027 174.788 110.13 174.796 110.232 174.796C111.177 174.796 112.007 174.109 112.161 173.147C113.312 165.916 117.08 159.036 122.509 154.114C133.456 165.376 140.732 177.793 140.865 178.021C141.405 178.958 142.603 179.279 143.537 178.736C144.472 178.196 144.793 177.001 144.252 176.066C143.994 175.618 137.842 165.032 128.07 154.273ZM36.2028 103.552C35.9338 102.553 35.7194 101.765 35.513 101.206C34.698 99.0146 33.2637 98.4421 31.9012 98.4421C30.9283 98.4421 29.9913 98.7331 29.3469 98.9349C27.3525 99.5559 25.7758 100.05 23.636 97.768C20.6687 94.6098 18.6071 87.4911 18.9418 81.5612C19.142 78.0058 20.1603 75.2779 21.8058 73.881C22.8977 72.9566 23.9175 72.5952 24.9468 72.7845C25.0672 72.8064 25.1845 72.8596 25.3034 72.8956C26.547 75.7487 27.9094 78.4297 29.3797 80.8276C31.3366 84.0124 33.5327 83.6839 34.3867 83.3929C38.108 82.1259 38.5945 63.8826 38.5898 63.7027C38.5616 62.5703 39.0512 61.4925 39.9303 60.7464C43.2354 57.9449 45.2361 53.9421 46.5531 49.8908C49.7112 52.7064 55.2298 53.0568 60.7952 53.0145C67.0317 52.952 78.0484 50.7308 89.3544 44.7602C90.8498 47.787 93.1382 48.9429 94.5257 49.3793C95.4924 49.6843 96.5091 49.7954 97.4727 49.7344C97.3178 55.0339 99.3747 60.3225 103.176 64.0844C103.676 64.5803 104.216 65.062 104.757 65.5469C106.378 66.9954 107.909 68.3641 108.176 70.0221C108.223 70.3178 108.278 71.3486 108.333 72.345C108.721 79.642 109.082 83.773 111.995 83.8309C112.051 83.8325 112.107 83.834 112.165 83.834C113.345 83.834 115.226 83.3523 119.04 72.9503C119.214 72.8893 119.384 72.8205 119.561 72.7876C120.585 72.5984 121.611 72.9597 122.702 73.8841C124.347 75.281 125.366 78.0089 125.567 81.5644C125.902 87.4943 123.84 94.613 120.875 97.7711C118.732 100.052 117.16 99.559 115.164 98.938C113.615 98.4546 110.395 97.4504 108.998 101.208C108.791 101.766 108.577 102.554 108.308 103.554C106.099 111.738 100.232 133.477 72.253 133.477C44.2741 133.477 38.4114 111.736 36.2028 103.552ZM87.3835 135.002C86.9299 142.962 80.329 149.305 72.2561 149.305C64.1833 149.305 57.5823 142.962 57.1287 135.002C61.388 136.496 66.3841 137.388 72.2561 137.388C78.1297 137.386 83.1242 136.496 87.3835 135.002ZM72.2577 157.788C60.3213 157.788 50.5684 148.378 49.9584 136.59C51.0611 136.382 52.1733 136.254 53.2886 136.177C54.3116 145.741 62.4251 153.214 72.2561 153.214C82.0871 153.214 90.2007 145.741 91.2237 136.177C92.3389 136.254 93.4511 136.383 94.5539 136.592C93.9454 148.378 84.1926 157.788 72.2577 157.788ZM58.9854 62.2199C58.8087 63.0786 56.6626 63.3524 54.1583 63.4697C51.654 63.562 49.4923 63.4681 49.2451 62.6281C48.9933 61.8148 51.094 60.4617 54.0285 60.3444C56.9629 60.2161 59.17 61.3893 58.9854 62.2199ZM85.5284 62.2199C85.3454 61.3893 87.5525 60.2161 90.4854 60.3444C93.4198 60.4617 95.5205 61.8163 95.2687 62.6281C95.0216 63.4681 92.8583 63.562 90.354 63.4697C87.8512 63.3524 85.7036 63.0786 85.5284 62.2199ZM58.9854 77.2753C58.9854 79.5372 57.1506 81.372 54.8888 81.372C52.6269 81.372 50.7921 79.5372 50.7921 77.2753C50.7921 75.0135 52.6269 73.1787 54.8888 73.1787C57.1506 73.1787 58.9854 75.0135 58.9854 77.2753ZM85.5284 77.2753C85.5284 75.0135 87.3632 73.1787 89.625 73.1787C91.8869 73.1787 93.7217 75.0135 93.7217 77.2753C93.7217 79.5372 91.8869 81.372 89.625 81.372C87.3616 81.372 85.5284 79.5387 85.5284 77.2753ZM69.2513 97.9557C68.7335 97.3488 68.6913 96.7591 68.9682 96.44C69.5782 95.8237 70.8671 96.0333 72.0622 96.0192C73.2557 96.0865 74.5524 95.9331 75.1343 96.576C75.397 96.9076 75.3282 97.4942 74.7854 98.0792C74.2583 98.6564 73.2228 99.1757 71.9933 99.1476C70.7623 99.1194 69.7518 98.5548 69.2513 97.9557ZM77.5181 110.188C76.4013 111.108 74.3553 111.988 72.0324 111.879C69.7127 111.797 67.8529 110.878 66.7188 110.064C65.5785 109.216 65.0936 108.436 65.3079 108.076C65.7725 107.269 68.7805 108.6 72.1498 108.752C75.4909 108.96 78.2157 107.35 78.7961 108.076C79.0479 108.4 78.6631 109.26 77.5181 110.188Z" fill="black"/>
<path fill-rule="evenodd" clip-rule="evenodd" d="M54.5 90C61.4036 90 67 84.4036 67 77.5V78H77V77.5C77 84.4036 82.5964 90 89.5 90C96.4036 90 102 84.4036 102 77.5C102 70.5964 96.4036 65 89.5 65C82.5964 65 77 70.5964 77 77.5V75H67V77.5C67 70.5964 61.4036 65 54.5 65C47.5964 65 42 70.5964 42 77.5C42 84.4036 47.5964 90 54.5 90ZM54.5 87C59.7467 87 64 82.7467 64 77.5C64 72.2533 59.7467 68 54.5 68C49.2533 68 45 72.2533 45 77.5C45 82.7467 49.2533 87 54.5 87ZM89.5 87C94.7467 87 99 82.7467 99 77.5C99 72.2533 94.7467 68 89.5 68C84.2533 68 80 72.2533 80 77.5C80 82.7467 84.2533 87 89.5 87Z" fill="black"/>
</svg>
