<svg width="131" height="33" viewBox="0 0 131 33" fill="none" xmlns="http://www.w3.org/2000/svg">
<path d="M42.6226 12.9703C42.6226 10.6391 40.3558 8.16331 36.433 8.16331C32.028 8.16331 27.1889 11.3948 26.4493 17.8416C25.6937 24.3527 29.7451 27.2465 33.8286 27.2465C37.9121 27.2465 40.0503 25.6549 42.2368 23.5328C40.3558 21.1695 37.9282 22.2627 37.462 22.5038C36.9475 22.7611 36.2883 23.1148 34.9379 23.1148C33.3624 23.1148 31.7547 22.4074 31.7547 19.4653C41.8509 18.4686 42.6226 15.3014 42.6226 12.9703ZM37.6227 13.3561C37.5584 14.0796 37.269 15.3175 32.1566 16.0088C33.2337 12.1825 35.2916 11.8931 36.2401 11.8931C37.1243 11.8931 37.687 12.5844 37.6227 13.3561ZM20.517 13.9831C20.517 13.9831 18.3466 20.7997 18.1698 21.3624C18.1055 20.7836 16.5139 8.54916 16.5139 8.54916C12.8162 8.54916 10.8387 11.1858 9.79374 13.967C9.79374 13.967 7.15715 20.7997 6.93207 21.3785C6.91599 20.8479 6.53015 14.0474 6.53015 14.0474C6.30507 10.6391 3.18617 8.56523 0.662109 8.56523L3.71671 27.1018C7.59122 27.0857 9.68121 24.4652 10.7744 21.6839C10.7744 21.6839 13.1056 15.6551 13.202 15.3818C13.2181 15.639 14.874 27.1018 14.874 27.1018C18.7646 27.1018 20.8546 24.6421 21.98 21.9572L27.43 8.56523C23.5877 8.56523 21.562 11.1858 20.517 13.9831ZM56.8988 8.13116C54.5034 8.13116 52.6706 9.43338 51.1273 11.3465V11.3304L52.5099 0.189209C49.3266 0.189209 46.7383 2.95442 46.2399 7.07009L43.8284 26.9571C45.6611 26.9571 47.6064 26.4266 48.6514 25.0761C49.5839 26.2819 50.9826 27.2465 53.0565 27.2465C58.4261 27.2465 62.1077 21.0087 62.1077 15.1567C62.0756 9.81922 59.4872 8.13116 56.8988 8.13116ZM56.4005 17.6969C55.8378 20.9605 54.0211 23.1791 52.2687 23.1791C50.5003 23.1791 49.7446 22.3913 49.7446 22.3913C50.0823 19.5296 50.2913 17.7773 50.9343 16.266C51.5774 14.7548 53.1047 12.3433 54.6963 12.3433C56.2558 12.3433 56.9631 14.4172 56.4005 17.6969ZM75.5158 8.56523H71.7699L71.786 8.37231C72.0432 5.92863 72.622 4.64249 74.5351 4.43349C75.8373 4.30487 76.4161 3.62965 76.5608 2.89011C76.6733 2.31135 77.027 0.301747 77.027 0.301747C69.5031 0.253516 67.1398 3.50103 66.5288 8.45269L66.5128 8.56523H66.4324C65.2105 8.56523 63.8601 9.94784 63.635 11.7002L63.5546 12.3433H66.0626L63.9566 29.7384L63.3135 32.8573C63.3939 32.8573 63.4903 32.8734 63.5707 32.8734C67.0915 32.7448 69.3423 29.9635 69.8407 25.9282L71.4805 12.3433H72.6541C73.8116 12.3433 75.1621 11.1858 75.4033 9.25654L75.5158 8.56523ZM95.0009 8.2437C90.6762 8.2437 86.5927 11.4269 85.3387 16.4268C84.0847 21.4267 85.9818 27.343 92.3482 27.343C98.6986 27.343 102.364 21.1855 102.364 16.057C102.364 10.9607 98.9076 8.2437 95.0009 8.2437ZM96.7533 17.5361C96.5282 19.8029 95.5314 23.2434 92.7984 23.2434C90.0492 23.2434 90.4351 19.2242 90.7084 17.311C90.9978 15.2693 92.1392 12.3594 94.599 12.3594C96.8015 12.3594 97.0105 14.9799 96.7533 17.5361ZM123.73 13.9831C123.73 13.9831 121.56 20.7997 121.383 21.3624C121.319 20.7836 119.727 8.54916 119.727 8.54916C116.029 8.54916 114.052 11.1858 113.007 13.967C113.007 13.967 110.37 20.7997 110.145 21.3785C110.129 20.8479 109.743 14.0474 109.743 14.0474C109.518 10.6391 106.399 8.56523 103.875 8.56523L106.914 27.1018C110.788 27.0857 112.878 24.4652 113.972 21.6839C113.972 21.6839 116.303 15.6551 116.383 15.3818C116.415 15.639 118.055 27.1018 118.055 27.1018C121.946 27.1018 124.036 24.6421 125.161 21.9572L130.611 8.56523C126.785 8.56523 124.759 11.1858 123.73 13.9831ZM79.0527 0.301747L75.9016 25.7192L75.2586 28.8542C75.3389 28.8542 75.4354 28.8703 75.5158 28.8703C78.908 28.822 81.3195 25.8478 81.7697 22.1019L83.5863 7.52024C84.133 3.06696 81.4803 0.301747 79.0527 0.301747Z" fill="#4353FF"/>
</svg>
