<svg width="93" height="43" viewBox="0 0 93 43" fill="none" xmlns="http://www.w3.org/2000/svg">
<path fill-rule="evenodd" clip-rule="evenodd" d="M62.625 5.7426H59.209L61.6246 3.33334C61.4346 3.06734 61.2227 2.81773 60.9918 2.58755C60.7611 2.35737 60.5115 2.14663 60.2447 1.95715L57.8293 4.3664V0.959311C57.5132 0.906474 57.1881 0.878537 56.8574 0.87793H56.8507C56.5195 0.878537 56.195 0.906474 55.8789 0.959311V4.3664L53.4634 1.95715C53.1966 2.14663 52.9465 2.35737 52.7162 2.58755L52.715 2.58877C52.4843 2.81833 52.2729 3.06734 52.0836 3.33334L54.4992 5.7426H51.0832C51.0832 5.7426 51.0016 6.38211 51.0016 6.71311V6.71735C51.0016 7.04773 51.0296 7.37265 51.0832 7.68847H54.4992L52.0836 10.0971C52.4636 10.6291 52.93 11.0949 53.4634 11.4733L55.8789 9.06405V12.4711C56.195 12.524 56.5188 12.5519 56.8495 12.5526H56.858C57.1886 12.5519 57.5138 12.524 57.8293 12.4711V9.06405L60.2454 11.4733C60.5115 11.2844 60.7611 11.0731 60.9918 10.8429H60.9925C61.2227 10.6127 61.4346 10.3631 61.6246 10.0971L59.2084 7.68847H62.625C62.678 7.37327 62.706 7.04956 62.706 6.71918V6.71128C62.706 6.3809 62.678 6.0578 62.625 5.7426ZM68.3399 30.5561C67.3643 29.6421 66.8534 28.2003 66.806 26.2307H79.1101C79.1333 25.9733 79.157 25.6635 79.1801 25.2992C79.2039 24.9359 79.2161 24.5904 79.2161 24.2618C79.2161 23.066 79.0511 21.9588 78.7222 20.9391C78.3929 19.9194 77.9112 19.0406 77.2773 18.3021C76.6422 17.5636 75.8549 16.9836 74.9148 16.5615C73.9746 16.1395 72.8817 15.9281 71.6365 15.9281C70.1787 15.9281 68.9153 16.1801 67.846 16.6842C66.7768 17.1889 65.8896 17.8685 65.1845 18.7236C64.4799 19.58 63.9563 20.5875 63.616 21.7475C63.2749 22.9087 63.1045 24.1567 63.1045 25.4922C63.1045 26.8527 63.2811 28.1007 63.6335 29.2376C63.9861 30.3746 64.5445 31.3596 65.308 32.1916C66.0717 33.0237 67.0416 33.668 68.2169 34.1253C69.3914 34.5827 70.8016 34.8111 72.4475 34.8111C73.5752 34.8111 74.6031 34.7284 75.5322 34.5651C76.4596 34.4005 77.312 34.1551 78.0877 33.8266C78.064 33.3341 77.994 32.8366 77.8765 32.3319C77.7584 31.8279 77.6061 31.4003 77.418 31.0487C75.9134 31.6347 74.3278 31.9281 72.6587 31.9281C70.7547 31.9281 69.3153 31.4702 68.3399 30.5561ZM35.3952 16.35C35.6297 16.3038 35.8708 16.2686 36.1175 16.2449C36.3646 16.2218 36.6167 16.2097 36.8755 16.2097C37.11 16.2097 37.3571 16.2218 37.6159 16.2449C37.8741 16.2686 38.1213 16.3038 38.3564 16.35C38.3795 16.3979 38.4094 16.5436 38.444 16.7902C38.4794 17.0362 38.5147 17.2998 38.55 17.581C38.5854 17.8622 38.6206 18.1325 38.6559 18.39C38.6913 18.648 38.7084 18.8121 38.7084 18.8825C38.9434 18.5072 39.2253 18.144 39.5547 17.7924C39.8835 17.4407 40.278 17.1237 40.7359 16.8431C41.1939 16.5613 41.7109 16.3391 42.2874 16.175C42.8623 16.011 43.5028 15.9285 44.2085 15.9285C45.2657 15.9285 46.2471 16.1046 47.1527 16.4562C48.0568 16.8079 48.832 17.3526 49.4786 18.0905C50.1247 18.8296 50.63 19.7674 50.9948 20.9037C51.3589 22.0418 51.5409 23.3827 51.5409 24.9302C51.5409 28.0245 50.7007 30.4454 49.0207 32.1914C47.3396 33.9381 44.9605 34.8114 41.8813 34.8114C41.3643 34.8114 40.8359 34.7762 40.2951 34.7058C39.7538 34.6353 39.2843 34.5412 38.8849 34.4246V42.6878C38.6029 42.7339 38.3034 42.7691 37.9861 42.7929C37.6689 42.8159 37.3802 42.8281 37.1221 42.8281C36.8633 42.8281 36.5759 42.8159 36.2587 42.7929C35.9415 42.7691 35.6534 42.7339 35.3952 42.6878V16.35ZM28.1678 22.504C28.1678 21.1206 27.8152 20.1597 27.1102 19.6204C26.405 19.0818 25.3826 18.8121 24.043 18.8121C23.2198 18.8121 22.4508 18.877 21.734 19.0053C21.0168 19.1345 20.3171 19.304 19.6364 19.5148C19.1894 18.741 18.9666 17.8161 18.9666 16.7368C19.7648 16.4794 20.646 16.2801 21.6105 16.1392C22.5738 15.9983 23.5018 15.9285 24.3956 15.9285C26.7454 15.9285 28.5319 16.4624 29.7539 17.5282C30.976 18.5953 31.5874 20.3007 31.5874 22.6443V33.932C30.7648 34.1198 29.7661 34.3129 28.591 34.5121C27.4152 34.7106 26.2162 34.8108 24.9947 34.8108C23.8427 34.8108 22.8033 34.7058 21.8747 34.4944C20.9461 34.2831 20.1588 33.9442 19.5128 33.4741C18.8661 33.0065 18.3669 32.4077 18.0143 31.6813C17.6617 30.955 17.4857 30.0762 17.4857 29.0437C17.4857 28.0367 17.6909 27.1513 18.1025 26.3891C18.5136 25.6281 19.0719 24.9947 19.777 24.4906C20.4822 23.9871 21.2932 23.6112 22.2096 23.3658C23.1267 23.1192 24.09 22.996 25.1007 22.996C25.8527 22.996 26.4695 23.0142 26.9511 23.0488C27.4329 23.0847 27.8383 23.1254 28.1678 23.1721V22.504ZM0.70459 33.8972L10.2236 19.1283H1.8329C1.76225 18.7062 1.72694 18.2379 1.72694 17.7217C1.72694 17.2297 1.76225 16.7718 1.8329 16.3497H15.406L15.582 16.8076L5.99294 31.6112H14.9828C15.0528 32.0807 15.0887 32.5604 15.0887 33.0524C15.0887 33.5225 15.0528 33.967 14.9828 34.3897H0.881173L0.70459 33.8972ZM26.8282 25.7745C27.3689 25.8218 27.8152 25.8679 28.1678 25.9148V31.6466C27.7208 31.7639 27.21 31.8513 26.6339 31.9097C26.0585 31.9692 25.5002 31.9983 24.9595 31.9983C24.5368 31.9983 24.09 31.9753 23.6199 31.9278C23.1498 31.8805 22.7211 31.7517 22.3333 31.541C21.9454 31.3296 21.6221 31.0254 21.3639 30.6263C21.1045 30.2286 20.976 29.6771 20.976 28.9738C20.976 27.8727 21.3572 27.0523 22.122 26.5124C22.8849 25.9736 23.9956 25.7035 25.4533 25.7035C25.829 25.7035 26.2875 25.7278 26.8282 25.7745ZM40.2598 31.7869C39.7897 31.7171 39.3306 31.5999 38.8849 31.4353V24.1218C38.8849 23.2303 39.014 22.4639 39.2734 21.8183C39.5316 21.1739 39.872 20.64 40.2951 20.2179C40.7184 19.7959 41.1994 19.4794 41.7406 19.2694C42.2807 19.058 42.8452 18.9524 43.4328 18.9524C45.0068 18.9524 46.1412 19.5037 46.8347 20.6048C47.5277 21.7072 47.8748 23.1957 47.8748 25.0711C47.8748 26.2433 47.7274 27.2569 47.4339 28.112C47.1398 28.9683 46.7403 29.6771 46.235 30.2395C45.7302 30.8025 45.125 31.2197 44.4198 31.4881C43.7147 31.7578 42.9396 31.8926 42.0932 31.8926C41.3406 31.8926 40.7299 31.8568 40.2598 31.7869ZM55.8775 19.093H53.5856C53.5387 18.9054 53.5034 18.6886 53.4803 18.4426C53.4564 18.1967 53.4449 17.9561 53.4449 17.7217C53.4449 17.4879 53.4564 17.2468 53.4803 17.0008C53.5034 16.7549 53.5387 16.5381 53.5856 16.3497H59.2978V34.3897C59.0383 34.4358 58.751 34.4705 58.4337 34.4942C58.1165 34.5172 57.8279 34.5294 57.5697 34.5294C57.3346 34.5294 57.0582 34.5172 56.7416 34.4942C56.4237 34.4705 56.1357 34.4358 55.8775 34.3897V19.093ZM75.7612 23.6295C75.7612 22.9731 75.6729 22.3463 75.4969 21.7475C75.3203 21.1499 75.0615 20.6288 74.7212 20.1831C74.3795 19.7378 73.9455 19.3802 73.4163 19.111C72.8877 18.8415 72.2587 18.706 71.5304 18.706C70.0966 18.706 68.998 19.1402 68.2338 20.0075C67.4703 20.8747 67.0063 22.0822 66.8413 23.6295H75.7612ZM83.8008 16.2449C83.5657 16.2686 83.3186 16.3038 83.0604 16.35V34.3893C83.3423 34.4355 83.6419 34.4707 83.9597 34.4944C84.2769 34.5176 84.5644 34.5296 84.8237 34.5296C85.0813 34.5296 85.37 34.5176 85.6866 34.4944C86.0039 34.4707 86.2918 34.4355 86.5506 34.3893V25.4223C86.5506 24.2039 86.6858 23.2073 86.9561 22.4342C87.2259 21.6604 87.5906 21.0507 88.0485 20.6049C88.507 20.1597 89.0233 19.8494 89.6 19.6733C90.176 19.4978 90.7813 19.4097 91.4158 19.4097H91.8914C92.0911 19.4097 92.2847 19.4334 92.4734 19.4795C92.5204 19.1989 92.5617 18.9056 92.5971 18.6007C92.6317 18.2965 92.6494 18.0031 92.6494 17.7219C92.6494 17.4638 92.6379 17.2179 92.6141 16.9834C92.5909 16.7496 92.555 16.5261 92.5087 16.3148C92.3681 16.2923 92.1964 16.2747 91.9972 16.2626C91.7975 16.2504 91.6033 16.2449 91.4158 16.2449C90.1461 16.2449 89.1068 16.5383 88.2958 17.1237C87.4853 17.7098 86.8326 18.4022 86.3393 19.1989C86.3393 18.8 86.3034 18.3141 86.2333 17.739C86.1628 17.1657 86.0921 16.7016 86.0221 16.35C85.8102 16.3038 85.5751 16.2686 85.317 16.2449C85.0576 16.2219 84.7994 16.2097 84.5413 16.2097C84.2825 16.2097 84.0352 16.2219 83.8008 16.2449ZM58.0923 7.95022C58.2372 7.5664 58.317 7.15159 58.317 6.71796V6.71249C58.317 6.27886 58.2372 5.86346 58.0923 5.48023C57.708 5.33569 57.2916 5.25613 56.8569 5.25613H56.8513C56.4165 5.25613 56.0001 5.33569 55.6152 5.48023C55.471 5.86346 55.3911 6.27886 55.3905 6.71249V6.71796C55.3911 7.15159 55.471 7.567 55.6158 7.95022C56.0001 8.09477 56.4165 8.17433 56.8513 8.17433H56.8569C57.2916 8.17433 57.708 8.09477 58.0923 7.95022Z" fill="#FF4A00"/>
</svg>
